<svg width="16" height="16" viewBox="0 0 16 16" fill="none" xmlns="http://www.w3.org/2000/svg">
<path d="M7.84329 5.56173C6.47787 5.56173 5.36358 6.67601 5.36358 8.04144C5.36358 9.40686 6.47787 10.5211 7.84329 10.5211C9.20871 10.5211 10.323 9.40686 10.323 8.04144C10.323 6.67601 9.20871 5.56173 7.84329 5.56173ZM15.2806 8.04144C15.2806 7.01458 15.2899 5.99702 15.2322 4.97203C15.1745 3.78147 14.9029 2.72485 14.0323 1.85425C13.1599 0.981792 12.1051 0.712056 10.9146 0.654389C9.8877 0.596721 8.87014 0.606022 7.84515 0.606022C6.81829 0.606022 5.80073 0.596721 4.77574 0.654389C3.58518 0.712056 2.52856 0.983653 1.65796 1.85425C0.785503 2.72671 0.515767 3.78147 0.458099 4.97203C0.400432 5.99888 0.409733 7.01644 0.409733 8.04144C0.409733 9.06643 0.400432 10.0859 0.458099 11.1108C0.515767 12.3014 0.787364 13.358 1.65796 14.2286C2.53042 15.1011 3.58518 15.3708 4.77574 15.4285C5.8026 15.4862 6.82015 15.4769 7.84515 15.4769C8.87201 15.4769 9.88956 15.4862 10.9146 15.4285C12.1051 15.3708 13.1617 15.0992 14.0323 14.2286C14.9048 13.3562 15.1745 12.3014 15.2322 11.1108C15.2917 10.0859 15.2806 9.06829 15.2806 8.04144ZM7.84329 11.8568C5.73191 11.8568 4.02792 10.1528 4.02792 8.04144C4.02792 5.93005 5.73191 4.22607 7.84329 4.22607C9.95467 4.22607 11.6587 5.93005 11.6587 8.04144C11.6587 10.1528 9.95467 11.8568 7.84329 11.8568ZM11.8149 4.96087C11.322 4.96087 10.9239 4.56277 10.9239 4.06981C10.9239 3.57684 11.322 3.17875 11.8149 3.17875C12.3079 3.17875 12.706 3.57684 12.706 4.06981C12.7061 4.18686 12.6832 4.3028 12.6385 4.41097C12.5937 4.51915 12.5281 4.61744 12.4453 4.70021C12.3625 4.78298 12.2643 4.84861 12.1561 4.89334C12.0479 4.93806 11.932 4.96101 11.8149 4.96087Z" fill="white"/>
</svg>
