<svg width="15" height="16" viewBox="0 0 15 16" fill="none" xmlns="http://www.w3.org/2000/svg">
<path d="M2.84423 0.617188C1.35034 0.617188 0.147461 1.82007 0.147461 3.31396V12.6897C0.147461 14.1836 1.35034 15.3864 2.84423 15.3864H7.92578V9.61258H6.39901V7.53381H7.92578V5.75781C7.92578 4.36249 8.82787 3.08134 10.9059 3.08134C11.7473 3.08134 12.3695 3.16212 12.3695 3.16212L12.3205 5.10336C12.3205 5.10336 11.686 5.09736 10.9936 5.09736C10.2442 5.09736 10.1241 5.44263 10.1241 6.01583V7.53382H12.3801L12.2818 9.61259H10.1241V15.3864H12.2199C13.7138 15.3864 14.9167 14.1836 14.9167 12.6897V3.31398C14.9167 1.82008 13.7138 0.617202 12.2199 0.617202H2.84422L2.84423 0.617188Z" fill="white"/>
</svg>
