<svg width="10" height="10" viewBox="0 0 10 10" fill="none" xmlns="http://www.w3.org/2000/svg">
<path d="M5.0156 0.5398C4.23437 0.539572 3.46735 0.748643 2.79429 1.14527C2.12124 1.5419 1.56673 2.1116 1.18844 2.79513C0.81015 3.47866 0.621889 4.25106 0.643234 5.03199C0.66458 5.81293 0.894753 6.57389 1.30982 7.23573L1.41384 7.40099L0.971922 9.01374L2.62672 8.57993L2.78608 8.67437C3.45972 9.07332 4.22825 9.2838 5.01117 9.28376H5.01338C6.173 9.28395 7.2852 8.82349 8.10532 8.00365C8.92543 7.18381 9.38627 6.07177 9.38647 4.91215C9.38667 3.75253 8.9262 2.64033 8.10636 1.82022C7.28652 1.0001 6.17448 0.539258 5.01486 0.539062L5.0156 0.5398ZM7.58596 6.78865C7.48926 6.94835 7.36055 7.08631 7.20793 7.19385C7.05532 7.3014 6.8821 7.37619 6.69917 7.41353C6.42298 7.4609 6.13956 7.44322 5.8714 7.36189C5.61709 7.28264 5.36714 7.19005 5.12257 7.08449C4.21492 6.62899 3.44128 5.94535 2.87756 5.10065C2.57005 4.70961 2.38338 4.2373 2.34047 3.74169C2.33693 3.53712 2.37603 3.33405 2.45529 3.14543C2.53455 2.9568 2.65223 2.78675 2.80083 2.64611C2.84475 2.59601 2.89855 2.55554 2.95886 2.52722C3.01916 2.49891 3.08467 2.48338 3.15127 2.48159C3.23833 2.48159 3.32612 2.48159 3.40285 2.48602C3.484 2.48971 3.59172 2.45503 3.69795 2.71177C3.80862 2.97442 4.07126 3.62143 4.10372 3.68709C4.12456 3.72152 4.13648 3.76059 4.13842 3.80078C4.14035 3.84097 4.13223 3.88101 4.11479 3.91728C4.08169 3.9962 4.03747 4.06999 3.98347 4.13639C3.91707 4.21312 3.84551 4.30755 3.78648 4.36657C3.72009 4.43223 3.65221 4.50306 3.7282 4.63438C3.92557 4.97232 4.17196 5.27912 4.45932 5.54478C4.77113 5.82199 5.12889 6.04269 5.51654 6.19696C5.64786 6.26336 5.72459 6.25156 5.80131 6.16376C5.87804 6.07597 6.12962 5.78013 6.21741 5.6488C6.30521 5.51748 6.39226 5.53962 6.51252 5.58314C6.63277 5.62667 7.27979 5.94465 7.41111 6.01104C7.54243 6.07744 7.63023 6.10917 7.66269 6.16376C7.69867 6.37508 7.672 6.59231 7.58596 6.78865Z" fill="white"/>
</svg>
