<svg width="22" height="16" viewBox="0 0 22 16" fill="none" xmlns="http://www.w3.org/2000/svg">
<path d="M20.6027 2.93984C20.4832 2.49462 20.2488 2.0886 19.923 1.76243C19.5973 1.43625 19.1916 1.20136 18.7465 1.08125C17.1082 0.640625 10.541 0.640625 10.541 0.640625C10.541 0.640625 3.97383 0.640625 2.33555 1.07891C1.89028 1.19862 1.48435 1.43339 1.15853 1.75962C0.832704 2.08586 0.598451 2.49208 0.479297 2.9375C0.0410155 4.57812 0.0410156 8 0.0410156 8C0.0410156 8 0.0410155 11.4219 0.479297 13.0602C0.720703 13.9648 1.4332 14.6773 2.33555 14.9187C3.97383 15.3594 10.541 15.3594 10.541 15.3594C10.541 15.3594 17.1082 15.3594 18.7465 14.9187C19.6512 14.6773 20.3613 13.9648 20.6027 13.0602C21.041 11.4219 21.041 8 21.041 8C21.041 8 21.041 4.57812 20.6027 2.93984ZM8.45508 11.1406V4.85937L13.8926 7.97656L8.45508 11.1406Z" fill="#2196F3"/>
</svg>
