<svg width="12" height="12" viewBox="0 0 12 12" fill="none" xmlns="http://www.w3.org/2000/svg">
<path d="M5.07309 6.87845C5.76892 7.58433 6.61085 8.12931 7.53975 8.47511L8.79642 7.47511C8.83368 7.44946 8.87785 7.43572 8.92309 7.43572C8.96833 7.43572 9.0125 7.44946 9.04975 7.47511L11.3831 8.97845C11.4717 9.03171 11.5467 9.10483 11.6021 9.19205C11.6576 9.27926 11.692 9.37818 11.7027 9.48099C11.7134 9.5838 11.7 9.68768 11.6636 9.78443C11.6272 9.88117 11.5688 9.96814 11.4931 10.0384L10.3998 11.1184C10.2432 11.2732 10.0507 11.3867 9.8396 11.4489C9.62847 11.5112 9.40521 11.5202 9.18975 11.4751C7.04049 11.0312 5.05947 9.99162 3.47309 8.47511C1.92192 6.94353 0.848512 4.99473 0.383087 2.86512C0.337109 2.65299 0.346706 2.43259 0.410946 2.22527C0.475187 2.01795 0.591893 1.83074 0.749754 1.68178L1.88309 0.588448C1.95322 0.516377 2.03875 0.461107 2.13327 0.426774C2.22779 0.392442 2.32885 0.379938 2.42889 0.390198C2.52893 0.400458 2.62535 0.433217 2.71093 0.486022C2.79652 0.538826 2.86904 0.610308 2.92309 0.695115L4.47642 2.99845C4.50321 3.03462 4.51768 3.07844 4.51768 3.12345C4.51768 3.16846 4.50321 3.21228 4.47642 3.24845L3.45309 4.47845C3.80828 5.38876 4.36167 6.20859 5.07309 6.87845Z" fill="white"/>
</svg>
