<svg width="10" height="13" viewBox="0 0 10 13" fill="none" xmlns="http://www.w3.org/2000/svg">
<path d="M4.99967 12.9984C4.15763 12.2802 3.37714 11.4928 2.66634 10.6444C1.59967 9.37043 0.333008 7.4731 0.333008 5.6651C0.332546 4.74174 0.606014 3.839 1.1188 3.07112C1.63159 2.30324 2.36066 1.70474 3.21372 1.35137C4.06678 0.997992 5.00551 0.905627 5.91109 1.08596C6.81666 1.2663 7.64839 1.71122 8.30101 2.36443C8.73551 2.79701 9.07991 3.31146 9.31427 3.87802C9.54862 4.44457 9.66829 5.05199 9.66634 5.6651C9.66634 7.4731 8.39967 9.37043 7.33301 10.6444C6.62221 11.4928 5.84171 12.2802 4.99967 12.9984ZM4.99967 3.6651C4.46924 3.6651 3.96053 3.87581 3.58546 4.25089C3.21039 4.62596 2.99967 5.13467 2.99967 5.6651C2.99967 6.19553 3.21039 6.70424 3.58546 7.07931C3.96053 7.45439 4.46924 7.6651 4.99967 7.6651C5.53011 7.6651 6.03882 7.45439 6.41389 7.07931C6.78896 6.70424 6.99967 6.19553 6.99967 5.6651C6.99967 5.13467 6.78896 4.62596 6.41389 4.25089C6.03882 3.87581 5.53011 3.6651 4.99967 3.6651Z" fill="white"/>
</svg>
