<svg width="11" height="10" viewBox="0 0 11 10" fill="none" xmlns="http://www.w3.org/2000/svg">
<path d="M10.6998 2.79401V7.42656C10.6998 7.85754 10.5286 8.27086 10.2239 8.57561C9.91911 8.88036 9.50578 9.05156 9.0748 9.05156H1.9248C1.49383 9.05156 1.0805 8.88036 0.775756 8.57561C0.47101 8.27086 0.299805 7.85754 0.299805 7.42656V2.79401L5.3347 5.75671C5.38472 5.78621 5.44173 5.80177 5.4998 5.80177C5.55788 5.80177 5.61488 5.78621 5.6649 5.75671L10.6998 2.79401ZM9.0748 0.601563C9.47465 0.6015 9.86048 0.748857 10.1585 1.01544C10.4565 1.28203 10.6458 1.64913 10.6901 2.04651L5.4998 5.09956L0.309555 2.04651C0.353858 1.64913 0.543115 1.28203 0.841121 1.01544C1.13913 0.748857 1.52496 0.6015 1.9248 0.601563H9.0748Z" fill="white"/>
</svg>
