<svg width="88" height="56" viewBox="0 0 88 56" fill="none" xmlns="http://www.w3.org/2000/svg">
<path d="M46.9381 20.5333C47.1937 20.4369 47.4259 20.2887 47.6198 20.0982C47.8138 19.9077 47.9651 19.6791 48.064 19.4273C48.187 19.1099 48.2298 18.7676 48.1886 18.4302C48.1473 18.0927 48.0234 17.7703 47.8274 17.4909C47.6314 17.2114 47.3694 16.9833 47.064 16.8264C46.7586 16.6695 46.419 16.5885 46.0747 16.5904C44.362 16.5367 42.6475 16.5787 40.933 16.5697C40.7151 16.5697 40.6542 16.6385 40.6563 16.8483C40.6623 19.3848 40.6623 21.9211 40.6563 24.4574C40.6563 24.6894 40.7232 24.7617 40.9611 24.761C42.6603 24.752 44.3595 24.761 46.0587 24.752C46.2693 24.7445 46.4785 24.7146 46.6826 24.6628C47.1477 24.5581 47.5648 24.3047 47.8691 23.9421C48.1734 23.5794 48.3479 23.1277 48.3655 22.6571C48.4157 22.1944 48.3005 21.7289 48.0398 21.3411C47.7792 20.9533 47.3895 20.6675 46.9381 20.5333ZM43.9088 18.6087H45.1183C45.2448 18.6081 45.3667 18.6554 45.4589 18.7409C45.5511 18.8263 45.6065 18.9435 45.6138 19.0681C45.6211 19.1927 45.5797 19.3154 45.4981 19.4107C45.4165 19.5061 45.301 19.567 45.1753 19.5807C44.5776 19.6128 43.978 19.5968 43.3801 19.6014C43.2716 19.6014 43.2129 19.5555 43.2154 19.4452C43.2163 19.4306 43.2163 19.416 43.2154 19.4014C43.1114 18.6587 43.1585 18.6069 43.9081 18.6069L43.9088 18.6087ZM45.788 22.2294C45.7365 22.608 45.4951 22.7436 45.1197 22.711C44.8819 22.6913 44.6405 22.711 44.4008 22.711H43.9485C43.2133 22.711 43.0442 22.4922 43.2106 21.7754C43.2487 21.6076 43.3481 21.6103 43.47 21.6103C44.0389 21.6103 44.6082 21.597 45.1764 21.6202C45.5843 21.6321 45.8322 21.8963 45.7878 22.2294H45.788Z" fill="white"/>
<path d="M40.1921 30.1595C40.1742 29.0927 40.5701 28.0596 41.2987 27.2716C42.0273 26.4837 43.0335 26.0005 44.1113 25.921C45.7489 25.7834 47.1515 26.162 48.1517 27.5413C48.6609 28.2438 48.66 28.2448 47.876 28.6009C47.695 28.6811 47.5252 28.7678 47.348 28.8481C47.0946 29.0055 46.8183 29.1238 46.5287 29.1989C46.1724 29.239 46.1787 28.7999 45.968 28.6114C45.6979 28.3504 45.3536 28.1769 44.981 28.114C44.6084 28.0512 44.2253 28.102 43.8827 28.2597C43.5235 28.4503 43.2275 28.7391 43.0304 29.0916C42.8333 29.4441 42.7434 29.8452 42.7714 30.2468C42.8618 31.4018 43.6495 32.1849 44.7192 32.1714C45.0377 32.1762 45.3511 32.0919 45.6232 31.9282C45.8952 31.7646 46.1148 31.5283 46.2565 31.2466C46.3794 31.0226 46.4753 31.0056 46.6915 31.1109C47.2026 31.3608 47.7162 31.6045 48.2451 31.8107C48.5652 31.9357 48.5543 32.0785 48.4033 32.3303C47.4936 33.8648 46.1127 34.4949 44.3556 34.3691C42.3426 34.2244 40.866 33.0872 40.3514 31.3214C40.2338 30.9454 40.18 30.5528 40.1921 30.1595Z" fill="white"/>
<path d="M58.351 20.7675C58.7126 20.213 59.0852 19.6631 59.4362 19.1027C59.4853 19.0047 59.5636 18.9238 59.6606 18.8709C59.7576 18.8181 59.8687 18.7958 59.9788 18.8071C60.7431 18.8278 61.508 18.8143 62.3626 18.8143C62.1419 19.1098 61.9619 19.3552 61.7775 19.5962C61.3524 20.1532 60.9382 20.7182 60.4934 21.2593C60.4557 21.2929 60.4253 21.3337 60.4041 21.3792C60.3828 21.4247 60.3712 21.474 60.3698 21.5241C60.3685 21.5742 60.3775 21.6241 60.3962 21.6706C60.415 21.7172 60.4431 21.7595 60.479 21.795C61.0885 22.659 61.678 23.5377 62.2732 24.4091C62.3373 24.5038 62.3935 24.6038 62.4866 24.7553C61.5914 24.7553 60.7559 24.7501 59.9203 24.7553C59.7277 24.7553 59.669 24.6464 59.5965 24.5107C59.3117 23.975 59.0176 23.4448 58.7203 22.9039C58.5582 23.0245 58.4311 23.1851 58.3518 23.3695C58.2724 23.5539 58.2436 23.7557 58.2683 23.9546C58.2964 24.7572 58.2764 24.7572 57.4553 24.7572C57.0792 24.7572 56.702 24.7446 56.3268 24.7572C56.0899 24.7679 56.0186 24.6902 56.0186 24.4554C56.0269 21.9167 56.0269 19.3779 56.0186 16.839C56.0186 16.6193 56.0917 16.5622 56.3024 16.5712C56.8599 16.5829 57.4174 16.59 57.9726 16.5712C58.2439 16.5613 58.289 16.6604 58.2873 16.8998C58.2755 18.1763 58.282 19.4538 58.282 20.7292L58.351 20.7675Z" fill="white"/>
<path d="M66.8912 24.1087C66.56 24.4171 66.1608 24.6454 65.7251 24.7757C65.2893 24.906 64.8289 24.9346 64.38 24.8595C63.9623 24.8316 63.5713 24.6472 63.2868 24.344C63.0024 24.0409 62.8461 23.6418 62.8499 23.2286C62.8364 21.8629 62.8499 20.4972 62.8408 19.1312C62.8408 18.879 62.9105 18.7973 63.1691 18.8072C63.6655 18.826 64.1637 18.8331 64.6585 18.8072C65.002 18.7884 65.1261 18.8705 65.1105 19.2392C65.0808 20.1729 65.1105 21.1138 65.097 22.045C65.097 22.4387 65.1921 22.7547 65.6062 22.884C65.8176 22.94 66.0406 22.9377 66.2507 22.8772C66.4609 22.8168 66.6502 22.7005 66.7981 22.5412C66.8736 22.4126 66.9008 22.2618 66.875 22.1154C66.875 21.1335 66.8868 20.1516 66.8706 19.1759C66.8652 18.8812 66.9547 18.7939 67.2513 18.8072C67.7777 18.8313 68.3056 18.8251 68.8309 18.8072C69.0687 18.8001 69.1393 18.8785 69.1384 19.1099C69.1311 20.8917 69.1311 22.6735 69.1384 24.4552C69.1384 24.6845 69.0687 24.7668 68.8309 24.757C68.3951 24.74 67.9572 24.74 67.5214 24.757C67.1335 24.7712 66.7482 24.8157 66.8912 24.1087Z" fill="white"/>
<path d="M54.8908 20.8173C54.8464 19.7756 54.3184 19.1418 53.2975 18.8536C52.6544 18.6686 51.9797 18.6155 51.315 18.6977C50.6504 18.7798 50.0098 18.9954 49.4327 19.3312C49.1432 19.4917 49.0982 19.641 49.2961 19.9097C49.4506 20.1279 49.5807 20.3619 49.684 20.6078C49.8016 20.8756 49.9066 20.9517 50.1895 20.7614C50.6077 20.4914 51.102 20.3595 51.6011 20.3846C52.4738 20.4007 52.7626 20.7417 52.6276 21.6343C52.0218 21.1631 51.3219 21.0693 50.5902 21.1113C49.5802 21.1702 48.9291 21.7139 48.7953 22.5995C48.7093 23.0488 48.7899 23.5136 49.0223 23.9091C49.2547 24.3045 49.6235 24.6043 50.0613 24.7536C50.979 25.0696 51.8536 24.8822 52.7008 24.2108C52.4857 24.8134 52.8455 24.7545 53.17 24.7465C53.6664 24.7412 54.1647 24.7375 54.6585 24.7465C54.8511 24.7508 54.9217 24.6956 54.9198 24.4984C54.9052 23.2775 54.9396 22.0492 54.8908 20.8173ZM52.3876 23.3168C52.2291 23.4001 52.0527 23.4448 51.8731 23.447C51.6612 23.4598 51.4492 23.425 51.2529 23.3452C51.1836 23.3167 51.1243 23.2687 51.0824 23.2071C51.0406 23.1455 51.0181 23.0731 51.0178 22.9989C51.0099 22.9173 51.0299 22.8354 51.0747 22.7664C51.1195 22.6973 51.1864 22.645 51.2648 22.6178C51.4455 22.5444 51.6399 22.5097 51.8352 22.5158C52.0305 22.522 52.2223 22.569 52.3979 22.6536C52.4701 22.6756 52.5333 22.7199 52.5781 22.78C52.6229 22.8401 52.6469 22.9129 52.6466 22.9875C52.642 23.0625 52.6143 23.1344 52.5673 23.1935C52.5203 23.2527 52.4562 23.2963 52.3835 23.3186L52.3876 23.3168Z" fill="white"/>
<path d="M66.2687 30.3229C66.2306 29.2784 65.717 28.6455 64.7024 28.3366C63.5091 27.9774 62.2213 28.0871 61.1079 28.6427C60.4378 28.9553 60.445 28.972 60.7913 29.5953C60.8989 29.79 61.0301 29.9746 61.1196 30.1773C61.209 30.38 61.2924 30.3933 61.4812 30.2736C61.9363 29.9772 62.4737 29.8286 63.0185 29.8487C63.845 29.878 64.1488 30.2674 63.9941 31.0984C63.4274 30.6975 62.7332 30.5118 62.039 30.5753C60.9593 30.62 60.2619 31.2064 60.1635 32.1367C60.0866 32.6272 60.2056 33.128 60.4954 33.5336C60.7852 33.9393 61.2231 34.218 61.717 34.3112C62.5454 34.4969 63.2896 34.296 64.0436 33.715C63.937 34.1757 64.134 34.2346 64.4559 34.2195C64.9814 34.1945 65.5094 34.2062 66.0355 34.2195C66.2164 34.2195 66.3015 34.1873 66.2987 33.9794C66.2847 32.7608 66.3138 31.5386 66.2687 30.3229ZM63.8424 32.7448C63.6097 32.8738 63.3449 32.9357 63.0782 32.9234C62.9399 32.9027 62.803 32.8729 62.6687 32.8342C62.5883 32.8127 62.5177 32.7648 62.4684 32.6985C62.4191 32.6322 62.394 32.5513 62.3974 32.4692C62.3896 32.3871 62.4095 32.3048 62.454 32.2351C62.4985 32.1653 62.5651 32.112 62.6434 32.0835C62.8373 32 63.049 31.9645 63.26 31.98C63.471 31.9956 63.675 32.0617 63.8543 32.1727C63.9097 32.1985 63.9563 32.2396 63.9886 32.291C64.0208 32.3424 64.0374 32.4019 64.0362 32.4623C64.035 32.5227 64.0161 32.5816 63.9819 32.6317C63.9477 32.6818 63.8995 32.7211 63.8431 32.7448H63.8424Z" fill="white"/>
<path d="M56.864 28.1409C55.4723 28.1249 54.3808 28.706 53.7994 29.9371C53.5185 30.4773 53.4112 31.0893 53.492 31.6913C53.5728 32.2933 53.8377 32.8566 54.2514 33.3061C55.2751 34.4984 58.0575 34.7344 59.2984 33.7523C59.4431 33.6376 59.4377 33.5613 59.3418 33.4292C59.1542 33.1791 58.9795 32.9199 58.8182 32.6525C58.6519 32.3687 58.5262 32.2384 58.1471 32.4402C57.4779 32.7972 56.2735 32.7883 55.899 31.9128H59.6317C59.789 31.9128 59.9527 31.9609 59.9655 31.6897C60.0517 29.6388 58.7955 28.1632 56.864 28.1409ZM57.5285 30.5209C57.2744 30.5147 57.0194 30.5209 56.7653 30.5209C56.5699 30.5209 56.3755 30.5262 56.181 30.5209C56.0842 30.5209 55.945 30.5746 55.9097 30.4459C55.8916 30.3817 55.9576 30.2808 56.0073 30.212C56.379 29.6915 57.3727 29.7183 57.6703 30.2531C57.762 30.4145 57.7764 30.5262 57.5288 30.5216L57.5285 30.5209Z" fill="white"/>
<path d="M84.9133 28.1377C83.4376 28.1047 82.1435 28.9331 81.7003 30.1909C81.2427 31.4896 81.6362 32.9581 82.7284 33.6965C84.0966 34.6185 85.5642 34.499 87.022 33.9081C87.5412 33.6974 87.5266 33.6609 87.203 33.1824C87.0358 32.9361 86.8557 32.6985 86.7029 32.4442C86.6044 32.2817 86.5219 32.256 86.3565 32.3612C86.0323 32.5521 85.6606 32.6497 85.2831 32.6433C84.7215 32.655 84.2206 32.5273 83.9096 31.9058H87.6344C87.7737 31.9058 87.9482 31.9907 87.9789 31.705C88.1905 29.7715 86.8332 28.1806 84.9133 28.1377ZM84.1482 30.5201C83.8769 30.5254 83.8769 30.4254 84.0044 30.2425C84.1141 30.0916 84.2644 29.974 84.4383 29.903C84.6122 29.832 84.8027 29.8105 84.9884 29.8407C85.3853 29.8648 85.6423 30.087 85.8246 30.5165C85.2206 30.5167 84.6845 30.5087 84.1482 30.5195V30.5201Z" fill="white"/>
<path d="M78.1061 31.6222C78.4343 30.6715 78.7309 29.8244 79.0213 28.9746C79.2555 28.2867 79.2536 28.2855 79.9907 28.2855C80.4429 28.2855 80.895 28.2936 81.347 28.2855C81.5677 28.2803 81.6471 28.3266 81.556 28.5534C80.838 30.3554 80.1251 32.1593 79.4174 33.965C79.4006 34.0426 79.3551 34.1113 79.2896 34.1576C79.2242 34.2038 79.1437 34.2243 79.0638 34.2149C78.4308 34.2032 77.7978 34.2078 77.1648 34.2149C77.0022 34.2149 76.9026 34.192 76.832 34.0085C76.0986 32.1204 75.3507 30.2369 74.582 28.2874H76.812C77.0571 28.2874 77.0443 28.491 77.0908 28.6302C77.4225 29.5869 77.7435 30.5502 78.1061 31.6222Z" fill="white"/>
<path d="M67.8442 31.5635V31.0744C67.8442 30.8066 67.922 30.4853 67.7989 30.2925C67.6758 30.0996 67.325 30.2264 67.0755 30.2237C66.8495 30.2237 66.8467 30.1006 66.8486 29.938C66.8486 29.4918 66.8658 29.0453 66.8486 28.6034C66.8367 28.3418 66.9389 28.2838 67.1831 28.2812C67.8486 28.2732 67.8476 28.2624 67.8476 27.5975C67.8476 26.6539 67.8477 26.6504 68.8026 26.6548C69.2207 26.6548 69.7666 26.5227 70.0207 26.7298C70.292 26.9485 70.1111 27.5094 70.0958 27.9162C70.0839 28.259 70.2323 28.2948 70.519 28.292C71.3411 28.284 71.3411 28.292 71.3411 29.0946V29.2285C71.3329 29.5374 71.437 29.9274 71.2851 30.1336C71.1178 30.3604 70.6981 30.2024 70.3908 30.2104C70.1817 30.2157 70.096 30.2693 70.1023 30.4881C70.1167 30.9345 70.0913 31.3808 70.1123 31.8217C70.1355 32.2803 70.3627 32.4555 70.8203 32.3574C71.0184 32.3163 71.0735 32.3574 71.1088 32.544C71.1647 32.9081 71.2531 33.2666 71.3729 33.6154C71.5085 33.9724 71.3404 34.101 71.0537 34.1939C70.3828 34.4295 69.652 34.4411 68.9738 34.2269C68.2504 33.9893 67.8788 33.4314 67.8488 32.5791C67.8342 32.2464 67.8442 31.9045 67.8442 31.5635Z" fill="white"/>
<path d="M51.385 28.8998C51.834 28.5197 52.3769 28.2635 52.9585 28.1571C53.1711 28.1214 53.2914 28.1482 53.2796 28.4188C53.2563 28.9374 53.2633 29.4577 53.2796 29.978C53.2858 30.194 53.2371 30.2718 53.0083 30.2218C52.8447 30.195 52.678 30.1923 52.5137 30.2138C51.6003 30.2915 51.444 30.4593 51.444 31.3474C51.444 32.1794 51.435 33.0106 51.4494 33.8416C51.4494 34.1138 51.4078 34.2387 51.0877 34.2211C50.5451 34.1908 50.0024 34.2032 49.46 34.2211C49.244 34.2264 49.1778 34.1603 49.1787 33.9459C49.1859 32.1606 49.1887 30.3823 49.1787 28.6015C49.1787 28.3337 49.2828 28.2793 49.5232 28.2874C49.959 28.3025 50.3968 28.3043 50.8326 28.2874C51.224 28.2679 51.592 28.2527 51.385 28.8998Z" fill="white"/>
<path d="M74.2878 31.2755C74.2878 32.1342 74.2797 32.9939 74.2932 33.8526C74.2932 34.1205 74.2578 34.2544 73.9315 34.2365C73.3888 34.2062 72.8462 34.2204 72.3101 34.2321C72.0994 34.2365 72.0225 34.1769 72.0234 33.957C72.0307 32.165 72.0307 30.3731 72.0234 28.5814C72.0234 28.3564 72.1138 28.3092 72.3154 28.3135C72.8581 28.3234 73.4007 28.3314 73.9368 28.3135C74.2081 28.3027 74.2985 28.3743 74.2985 28.6563C74.276 29.5277 74.2878 30.4016 74.2878 31.2755Z" fill="white"/>
<path d="M74.436 26.6254C74.4383 26.8747 74.3657 27.1191 74.2273 27.3276C74.089 27.5362 73.8911 27.6996 73.6587 27.7973C73.4263 27.8949 73.1699 27.9223 72.9217 27.8761C72.6735 27.8299 72.4448 27.7121 72.2644 27.5377C72.084 27.3632 71.96 27.1399 71.9081 26.8959C71.8562 26.6519 71.8788 26.3982 71.9729 26.1669C72.067 25.9355 72.2284 25.7369 72.4368 25.5961C72.6452 25.4552 72.8912 25.3786 73.1438 25.3757C73.3128 25.3701 73.4812 25.3985 73.6388 25.459C73.7964 25.5195 73.9399 25.6109 74.0607 25.7277C74.1815 25.8445 74.277 25.9843 74.3415 26.1386C74.406 26.2929 74.4382 26.4585 74.436 26.6254Z" fill="white"/>
<path d="M48.6382 39.3175L48.8336 39.2577C49.4666 39.0595 49.7786 38.6177 49.7135 37.9965C49.7033 37.719 49.5845 37.4563 49.3821 37.2635C49.1797 37.0708 48.9095 36.963 48.6283 36.9628C48.1509 36.9236 47.6689 36.9421 47.1881 36.9261C47.0152 36.9208 46.9502 36.9823 46.9502 37.1554C46.9555 38.3551 46.9502 39.5548 46.9546 40.7555C46.9546 40.8564 46.9411 40.9681 47.1047 40.9706C47.2682 40.9731 47.32 40.9107 47.3163 40.7608C47.3119 40.4796 47.3163 40.1983 47.3163 39.9162C47.3163 39.2742 47.4131 39.2022 48.0633 39.3012C48.2724 39.3333 48.3121 39.4984 48.4015 39.62C48.6638 39.977 48.9188 40.3466 49.1567 40.7225C49.1785 40.7767 49.2121 40.8255 49.2552 40.8655C49.2983 40.9055 49.3497 40.9356 49.4059 40.9537C49.4621 40.9719 49.5216 40.9776 49.5803 40.9705C49.6389 40.9634 49.6953 40.9436 49.7453 40.9126L48.6382 39.3175ZM47.4754 38.9756C47.3272 38.9809 47.3091 38.8864 47.31 38.7748V38.1098C47.31 37.2859 47.31 37.2843 48.1463 37.2868C48.2956 37.2814 48.4451 37.2858 48.5939 37.3001C48.7891 37.3213 48.9698 37.4122 49.1017 37.5559C49.2336 37.6995 49.3077 37.8858 49.31 38.0797C49.3269 38.2728 49.2728 38.4655 49.1577 38.6225C49.0425 38.7795 48.874 38.8904 48.6828 38.9348C48.2825 38.9851 47.8783 38.9987 47.4754 38.9756Z" fill="white"/>
<path d="M54.826 36.8711C53.6504 36.8773 52.8827 37.6987 52.8799 38.9599C52.8799 40.1882 53.681 41.0495 54.8351 41.0559C55.9891 41.0624 56.8081 40.199 56.8095 38.9796C56.8125 37.7163 56.0104 36.8665 54.826 36.8711ZM54.8557 40.6989C53.9099 40.706 53.2281 39.9651 53.2434 38.9385C53.2587 37.9119 53.9017 37.2238 54.8462 37.2238C55.7907 37.2238 56.4332 37.9298 56.4332 38.9502C56.4332 39.9706 55.7763 40.6918 54.8557 40.6989Z" fill="white"/>
<path d="M65.3754 38.9518C65.3754 38.3877 65.3835 37.8243 65.371 37.2612C65.3656 37.0318 65.4009 36.9103 65.682 36.9183C66.3431 36.9381 67.0042 36.9254 67.666 36.9245C67.8054 36.9245 67.9489 36.9119 67.9373 37.1183C67.9257 37.3247 67.7691 37.2504 67.666 37.2522C67.1234 37.2575 66.5807 37.2655 66.0383 37.2522C65.7995 37.2451 65.7408 37.3228 65.7326 37.5531C65.6901 38.7404 65.6838 38.7404 66.8941 38.7404H67.7071C67.8121 38.7404 67.9196 38.7234 67.9241 38.886C67.9285 39.0486 67.8272 39.0717 67.6943 39.0708C67.1517 39.0708 66.6091 39.0816 66.0667 39.0646C65.8225 39.0575 65.7141 39.1093 65.7322 39.3772C65.7584 39.7743 65.5956 40.2944 65.7947 40.5377C65.9937 40.781 66.5533 40.6001 66.9531 40.6207C67.2086 40.634 67.4641 40.6207 67.7196 40.6207C67.8209 40.6207 67.9385 40.5966 67.935 40.7626C67.935 40.8796 67.9097 40.9635 67.764 40.9626H65.554C65.3324 40.9626 65.373 40.8064 65.373 40.6815C65.374 40.1084 65.3754 39.5292 65.3754 38.9518Z" fill="white"/>
<path d="M84.9738 36.8862C85.4137 36.8587 85.8475 36.9997 86.1847 37.2799C86.2923 37.3691 86.3819 37.4425 86.2426 37.5959C86.1032 37.7493 86.0419 37.645 85.955 37.57C85.7832 37.4239 85.5797 37.3186 85.3603 37.2623C85.1408 37.206 84.9112 37.2001 84.689 37.2451C84.5215 37.2532 84.3622 37.3186 84.2381 37.43C84.1141 37.5414 84.0331 37.6919 84.0091 37.8557C83.9566 38.2253 84.2251 38.4182 84.5399 38.5271C84.9215 38.6601 85.3167 38.7548 85.6937 38.8967C85.9288 38.9607 86.1327 39.106 86.2682 39.3061C86.4037 39.5062 86.4617 39.7478 86.4317 39.9866C86.4107 40.2323 86.3076 40.4642 86.1387 40.6458C85.9698 40.8274 85.7445 40.9485 85.4983 40.9901C85.1918 41.0686 84.8711 41.0759 84.5612 41.0117C84.2514 40.9474 83.9608 40.8132 83.7122 40.6195C83.6091 40.5393 83.4256 40.4696 83.5747 40.2723C83.7239 40.0751 83.8161 40.2341 83.9255 40.3214C84.1337 40.5054 84.3875 40.6318 84.6612 40.6876C84.9349 40.7434 85.2187 40.7267 85.4837 40.6392C85.6454 40.5994 85.7891 40.5076 85.8922 40.3783C85.9953 40.2491 86.0521 40.0897 86.0535 39.9252C86.0571 39.7745 86.0083 39.6272 85.9154 39.5077C85.8224 39.3882 85.6908 39.3037 85.5425 39.2682C85.2405 39.1575 84.9153 39.071 84.601 38.9701C83.8414 38.7229 83.5394 38.3453 83.6426 37.7846C83.7438 37.2343 84.2593 36.888 84.9738 36.8862Z" fill="white"/>
<path d="M42.5797 36.9312C42.1593 36.916 41.737 36.9445 41.3137 36.9232C41.0424 36.9089 40.9885 37.0124 40.9946 37.2524C41.0118 37.8156 40.9999 38.3799 40.9999 38.9431V40.7232C40.9999 40.833 40.9646 40.9624 41.16 40.9722C41.3734 40.983 41.3625 40.8544 41.3607 40.7161V40.4483C41.366 40.0795 41.2287 39.5868 41.4166 39.3769C41.6355 39.1288 42.1481 39.3047 42.5316 39.2958C43.2622 39.2779 43.7786 38.7977 43.7795 38.1139C43.7831 37.9575 43.7545 37.802 43.6954 37.6568C43.6363 37.5116 43.5481 37.3798 43.4359 37.2692C43.3238 37.1586 43.1901 37.0717 43.0429 37.0136C42.8957 36.9555 42.7382 36.9274 42.5797 36.9312ZM42.6204 38.9406C42.4862 38.9497 42.3516 38.952 42.2171 38.9477C41.3653 38.9477 41.3653 38.9477 41.3653 38.0649C41.4016 37.8319 41.2431 37.3811 41.4331 37.3178C41.8373 37.2213 42.2573 37.2088 42.6666 37.2811C43.1342 37.3311 43.3827 37.6828 43.3665 38.1525C43.3696 38.3535 43.2936 38.5479 43.1544 38.6948C43.0152 38.8417 42.8238 38.9295 42.6204 38.9399V38.9406Z" fill="white"/>
<path d="M71.5107 38.9805C71.5235 39.6714 71.7874 40.224 72.4341 40.5398C72.72 40.6964 73.0505 40.7545 73.3736 40.7051C73.6967 40.6556 73.9939 40.5014 74.2183 40.2667C74.344 40.1497 74.439 40.1318 74.56 40.2454C74.7409 40.416 74.5193 40.4747 74.4524 40.5409C73.8754 41.1087 72.8961 41.1997 72.0634 40.7776C71.386 40.4348 70.9618 39.4476 71.1247 38.5762C71.1707 38.1979 71.3314 37.8422 71.5857 37.5555C71.84 37.2688 72.176 37.0646 72.5498 36.9695C72.8778 36.8536 73.2324 36.832 73.5723 36.9074C73.9122 36.9828 74.2234 37.152 74.4696 37.3953C74.5419 37.466 74.7056 37.5345 74.5537 37.6748C74.4415 37.7792 74.3468 37.7872 74.2174 37.6597C73.9955 37.4215 73.699 37.2638 73.3754 37.212C73.0518 37.1602 72.7199 37.2172 72.4332 37.374C71.7762 37.6888 71.5026 38.2665 71.5107 38.9805Z" fill="white"/>
<path d="M78.8469 39.1106C78.8469 38.5928 78.8369 38.0742 78.8513 37.5564C78.8576 37.3314 78.8007 37.2342 78.5537 37.2528C78.2824 37.2741 78.0111 37.259 77.7444 37.2571C77.626 37.2571 77.495 37.2723 77.5066 37.084C77.5166 36.934 77.6179 36.9297 77.7254 36.9297H80.3373C80.472 36.9297 80.5714 36.9448 80.5661 37.1163C80.5607 37.2879 80.452 37.2583 80.3491 37.2601H80.2588C79.9324 37.2798 79.5073 37.1225 79.3038 37.3218C79.0796 37.5396 79.2341 37.9664 79.2297 38.3037C79.2169 39.0884 79.2297 39.8731 79.2225 40.6577C79.2225 40.7855 79.2985 40.9694 79.0416 40.9765C78.7846 40.9836 78.8525 40.7978 78.8508 40.6694C78.8434 40.148 78.8469 39.6293 78.8469 39.1106Z" fill="white"/>
<path d="M61.5197 38.5089V37.1762C61.5197 37.0191 61.5478 36.9182 61.7376 36.9262C61.9095 36.9333 61.9186 37.0386 61.9186 37.1681C61.9067 38.1145 61.9051 39.0624 61.8833 40.0086C61.8868 40.2267 61.8158 40.4396 61.6817 40.613C61.5477 40.7864 61.3584 40.9103 61.1444 40.9645C60.9101 41.0496 60.657 41.0706 60.4117 41.0253C60.1663 40.9801 59.9379 40.8703 59.7506 40.7075C59.6312 40.6038 59.5969 40.5165 59.719 40.3773C59.8412 40.2381 59.9097 40.3314 59.9903 40.413C60.1209 40.5595 60.298 40.6577 60.4926 40.6914C60.6872 40.7252 60.8877 40.6925 61.061 40.5988C61.4326 40.4202 61.5311 40.0927 61.5214 39.7061C61.5116 39.3087 61.5197 38.9088 61.5197 38.5089Z" fill="white"/>
<path d="M14.4834 0V34.1064C24.2245 34.1064 32.1169 26.4724 32.1169 17.0564C32.1169 7.64045 24.2245 0 14.4834 0Z" fill="#1BB1A1"/>
<path d="M14.4834 19.6016V56.0012C24.8828 56.0012 33.3079 47.8529 33.3079 37.8015C33.3079 27.7502 24.88 19.6016 14.4834 19.6016Z" fill="#6FB748"/>
<path d="M18.4122 10.1094V45.7136C8.24348 45.7136 0 37.7439 0 27.9126C0 18.0814 8.24348 10.1094 18.4122 10.1094Z" fill="#B9D040"/>
</svg>
