<svg width="158" height="158" viewBox="0 0 158 158" fill="none" xmlns="http://www.w3.org/2000/svg">
<path d="M16.0528 143.718C14.4728 142.833 14.2516 142.201 14.9152 140.527C15.7684 138.441 16.6216 136.324 17.5064 134.238C18.1068 132.848 19.0548 132.311 20.1292 132.753C21.2036 133.195 21.5512 134.27 21.014 135.629C20.4768 136.987 19.908 138.346 19.2444 139.895C20.4136 139.895 21.4248 139.895 22.4676 139.895C25.3748 139.895 28.282 139.926 31.1576 139.863C31.5684 139.863 32.1688 139.579 32.2952 139.263C34.4124 134.27 36.4664 129.277 38.5204 124.253C38.552 124.158 38.552 124 38.5836 123.747C35.8344 123.747 33.1168 123.747 30.3992 123.747C28.914 123.747 27.1444 123.273 26.07 123.937C25.0588 124.569 24.8376 126.401 24.2688 127.697C23.6684 129.056 22.6888 129.593 21.646 129.119C20.54 128.645 20.224 127.634 20.7928 126.243C24.9008 116.258 29.0404 106.304 33.1168 96.3182C33.6224 95.1174 34.4756 94.7382 35.6764 94.7382C41.0484 94.7698 46.452 94.7382 51.824 94.7382C52.298 94.7382 52.7404 94.7382 53.5304 94.7382C53.088 94.1062 52.8036 93.6322 52.4876 93.1898C47.716 86.4906 43.7344 79.349 41.1116 71.5122C38.078 62.4114 37.3196 53.1842 40.0372 43.8622C42.4388 35.6778 46.9892 28.8838 53.5936 23.5118C59.6292 18.5822 66.5496 15.6118 74.2916 14.727C84.4668 13.5578 93.852 15.8962 102.258 21.7422C109.589 26.8614 114.708 33.687 117.615 42.1242C120.333 50.0242 120.459 58.019 118.595 66.1086C116.478 75.4306 112.148 83.7414 106.84 91.5782C106.176 92.5578 105.512 93.5058 104.722 94.6434C105.323 94.675 105.765 94.7066 106.208 94.7066C111.58 94.7066 116.983 94.7066 122.355 94.7066C124.188 94.7066 124.567 94.9594 125.262 96.6974C131.235 111.139 137.176 125.548 143.148 139.989C143.306 140.369 143.496 140.748 143.685 141.095C143.685 141.949 143.685 142.77 143.685 143.623C101.152 143.718 58.618 143.718 16.0528 143.718ZM78.9368 116.511C79.632 115.942 80.0428 115.594 80.4536 115.247C86.3628 110.096 91.8928 104.597 96.9172 98.5618C104.533 89.3978 110.916 79.5386 114.234 67.973C116.162 61.337 116.762 54.6062 115.245 47.8122C112.812 36.9418 106.745 28.631 97.0752 23.101C89.0172 18.4874 80.3272 17.255 71.258 19.2458C61.8728 21.2998 54.3836 26.3874 48.8852 34.2558C43.5448 41.8398 41.4592 50.3718 42.3756 59.5674C43.134 67.341 45.82 74.5142 49.4856 81.3398C54.2256 90.1878 60.3244 98.0246 67.2764 105.229C71.0368 109.053 74.9868 112.687 78.9368 116.511ZM91.8928 109.938C92.4616 109.938 92.9356 109.938 93.378 109.938C98.3076 109.938 103.206 109.938 108.135 109.938C108.641 109.938 109.146 109.969 109.62 110.096C110.568 110.349 111.011 111.012 110.948 111.992C110.884 112.94 110.347 113.54 109.399 113.698C108.957 113.761 108.483 113.761 108.009 113.761C101.657 113.761 95.3056 113.73 88.954 113.793C88.2904 113.793 87.5004 114.109 86.9632 114.551C84.9092 116.226 82.9816 118.027 80.9592 119.765C79.4108 121.093 78.8104 121.093 77.2304 119.765C70.1204 113.856 63.6108 107.347 57.7964 100.205C56.8484 99.0674 55.932 98.467 54.4468 98.5934C53.4988 98.6566 53.0564 98.941 52.7088 99.8258C51.0972 103.839 49.4224 107.821 47.7792 111.834C47.0524 113.603 46.768 113.793 44.872 113.793C40.29 113.793 35.708 113.793 31.126 113.825C30.7152 113.825 30.0516 113.951 29.9252 114.204C29.072 116.068 28.3136 117.996 27.4604 120.05C31.9476 120.05 36.182 120.05 40.4164 120.05C43.2604 120.05 43.924 121.093 42.818 123.747C40.764 128.708 38.71 133.669 36.6876 138.662C36.5296 139.073 36.4032 139.484 36.2136 139.958C38.236 139.958 40.0688 139.895 41.9332 139.989C42.976 140.053 43.3868 139.673 43.766 138.757C47.0208 130.762 50.3388 122.767 53.6252 114.773C54.5416 112.529 55.458 110.254 56.406 108.01C57.196 106.177 58.4284 105.925 59.9768 107.157C60.1664 107.315 60.356 107.473 60.5456 107.663C72.9644 118.249 85.3832 128.803 97.8336 139.357C98.2444 139.705 98.8764 139.926 99.4136 139.926C102.447 139.989 105.481 139.958 108.483 139.958C108.736 139.958 108.988 139.895 109.431 139.831C106.081 136.893 102.89 134.112 99.698 131.331C96.7908 128.771 93.8836 126.243 90.9764 123.684C90.2812 123.083 89.7756 122.388 90.1232 121.377C90.5024 120.334 91.2924 120.018 92.3036 120.05C92.588 120.05 92.904 120.05 93.1884 120.05C105.228 120.05 117.236 120.05 129.276 120.05C129.718 120.05 130.16 120.05 130.761 120.05C130.002 118.217 129.276 116.637 128.707 114.962C128.391 114.077 127.948 113.761 126.969 113.761C123.619 113.825 120.238 113.793 116.888 113.761C115.624 113.761 114.898 113.066 114.834 111.992C114.771 110.917 115.561 110.033 116.825 110.001C118.879 109.938 120.933 109.969 123.019 109.969C124.188 109.969 125.326 109.969 126.653 109.969C125.104 106.241 123.682 102.701 122.166 99.1938C122.039 98.9094 121.534 98.6566 121.218 98.6566C114.961 98.625 108.672 98.625 102.416 98.6566C102.1 98.6566 101.657 98.8462 101.436 99.099C98.276 102.607 95.1792 106.209 91.8928 109.938ZM92.6512 139.863C81.3384 130.225 70.2784 120.84 59.1552 111.36C55.1736 120.966 51.2868 130.383 47.4 139.863C62.4732 139.863 77.3884 139.863 92.6512 139.863ZM138.914 139.926C138.819 139.642 138.787 139.484 138.724 139.326C136.702 134.396 134.648 129.467 132.657 124.537C132.341 123.715 131.772 123.81 131.172 123.81C120.238 123.81 109.304 123.81 98.3708 123.81C98.0232 123.81 97.644 123.81 97.17 123.81C97.328 124.063 97.3596 124.189 97.4544 124.253C103.269 129.34 109.083 134.459 114.929 139.515C115.214 139.768 115.656 139.926 116.035 139.926C123.619 139.926 131.172 139.926 138.914 139.926ZM49.138 98.625C44.9036 98.625 40.8272 98.5934 36.7824 98.6566C36.498 98.6566 36.0872 99.1938 35.9292 99.5414C34.9496 101.817 34.0332 104.092 33.0852 106.399C32.6112 107.536 32.1372 108.674 31.6632 109.843C31.916 109.906 31.9792 109.938 32.074 109.938C34.8864 109.938 37.6988 109.969 40.5112 109.938C41.8068 109.938 43.3868 110.317 44.3032 109.717C45.2196 109.116 45.4408 107.473 45.9464 106.304C47.0208 103.807 48.032 101.311 49.138 98.625Z" fill="white"/>
<path d="M79.0948 73.1531C66.3284 73.0583 57.9544 59.6599 63.4528 48.0627C64.0848 46.7039 65.0644 46.1983 66.1388 46.7039C67.1816 47.1779 67.4976 48.2839 66.8972 49.6111C64.8748 54.0983 65.0012 58.5223 67.5608 62.7567C71.5108 69.2347 79.7584 71.2255 86.1416 67.3387C92.6196 63.3887 94.6736 54.9199 90.7236 48.4735C86.8052 42.0587 78.7156 40.0047 72.2376 43.7967C70.4364 44.8395 69.4252 44.8079 68.73 43.6387C68.0664 42.5011 68.5404 41.5847 70.3732 40.5103C76.3772 36.971 83.8664 37.3502 89.3648 41.4583C95.116 45.7559 97.7072 52.8975 96.0008 59.7863C94.326 66.6119 88.7328 71.7943 81.844 72.8371C80.9592 72.9951 80.0112 73.0583 79.0948 73.1531Z" fill="white"/>
</svg>
