<svg width="47" height="47" viewBox="0 0 47 47" fill="none" xmlns="http://www.w3.org/2000/svg">
<path d="M39.2646 21.5415H7.73542C6.70794 21.5415 5.875 22.3744 5.875 23.4019V23.5978C5.875 24.6252 6.70794 25.4582 7.73542 25.4582H39.2646C40.2921 25.4582 41.125 24.6252 41.125 23.5978V23.4019C41.125 22.3744 40.2921 21.5415 39.2646 21.5415Z" fill="white"/>
<path d="M39.2646 31.3335H7.73542C6.70794 31.3335 5.875 32.1664 5.875 33.1939V33.3897C5.875 34.4172 6.70794 35.2502 7.73542 35.2502H39.2646C40.2921 35.2502 41.125 34.4172 41.125 33.3897V33.1939C41.125 32.1664 40.2921 31.3335 39.2646 31.3335Z" fill="white"/>
<path d="M39.2646 11.75H7.73542C6.70794 11.75 5.875 12.5829 5.875 13.6104V13.8063C5.875 14.8337 6.70794 15.6667 7.73542 15.6667H39.2646C40.2921 15.6667 41.125 14.8337 41.125 13.8063V13.6104C41.125 12.5829 40.2921 11.75 39.2646 11.75Z" fill="white"/>
</svg>
